<?xml version="1.0" standalone="no"?>
<!DOCTYPE svg PUBLIC "-//W3C//DTD SVG 20010904//EN"
 "http://www.w3.org/TR/2001/REC-SVG-20010904/DTD/svg10.dtd">
<svg version="1.0" xmlns="http://www.w3.org/2000/svg"
 width="988.000000pt" height="988.000000pt" viewBox="0 0 988.000000 988.000000"
 preserveAspectRatio="xMidYMid meet">
<metadata>
Created by potrace 1.11, written by Peter Selinger 2001-2013
</metadata>
<g transform="translate(0.000000,988.000000) scale(0.100000,-0.100000)"
fill="#000000" stroke="none">
<path d="M2290 9873 c-606 -42 -1149 -294 -1570 -729 -367 -379 -596 -854
-665 -1377 -13 -104 -15 -442 -15 -2827 0 -2385 2 -2723 15 -2827 109 -830
642 -1553 1395 -1894 274 -124 522 -187 824 -210 95 -7 991 -9 2766 -7 2383 3
2634 5 2725 20 307 51 556 132 795 259 689 368 1163 1054 1265 1832 13 104 15
442 15 2827 0 2385 -2 2723 -15 2827 -69 523 -298 998 -665 1377 -414 427
-942 677 -1535 726 -108 9 -5211 12 -5335 3z m5274 -643 c864 -71 1541 -733
1635 -1602 13 -118 15 -3921 3 -3916 -5 2 -408 338 -896 748 -488 410 -909
756 -934 770 -40 21 -60 25 -137 25 -75 0 -98 -4 -139 -24 -38 -19 -242 -218
-912 -890 l-863 -866 -433 435 c-1937 1946 -2062 2069 -2107 2092 -37 18 -63
23 -131 23 -152 0 -85 59 -1090 -953 l-890 -897 3 1740 c3 1736 3 1740 25
1852 62 319 214 634 421 868 295 333 721 552 1159 594 131 12 5131 13 5286 1z
m-3676 -5225 c1030 -1038 1240 -1245 1288 -1270 51 -27 67 -30 143 -30 153 0
83 -61 1062 923 633 635 876 873 885 866 7 -5 447 -373 978 -819 l965 -810 1
-251 c0 -364 -21 -528 -95 -751 -64 -192 -146 -348 -270 -511 -310 -411 -771
-663 -1285 -702 -186 -14 -5070 -14 -5244 0 -866 71 -1540 731 -1635 1602 -6
55 -11 298 -11 555 l1 458 986 993 c542 546 989 991 993 990 4 -2 561 -561
1238 -1243z"/>
<path d="M6125 8329 c-309 -42 -565 -173 -771 -392 -166 -176 -275 -387 -325
-630 -27 -131 -29 -340 -5 -477 66 -375 301 -706 634 -894 150 -85 338 -141
519 -156 677 -54 1267 426 1364 1109 15 104 7 329 -15 429 -84 384 -329 706
-671 881 -99 50 -232 96 -339 116 -103 20 -300 27 -391 14z m273 -645 c218
-44 403 -205 481 -417 24 -65 26 -85 26 -212 -1 -126 -3 -147 -27 -207 -72
-189 -207 -324 -396 -396 -60 -23 -82 -26 -202 -27 -121 0 -142 3 -207 26 -94
35 -199 106 -267 181 -98 108 -166 286 -166 430 1 271 206 537 471 612 103 29
181 32 287 10z"/>
</g>
</svg>
